<svg id="visual" viewBox="0 0 900 600" width="900" height="600" xmlns="http://www.w3.org/2000/svg" xmlns:xlink="http://www.w3.org/1999/xlink" version="1.1"><rect x="0" y="0" width="900" height="600" fill="#0a0f18"></rect><defs><linearGradient id="grad1_0" x1="33.3%" y1="100%" x2="100%" y2="0%"><stop offset="20%" stop-color="#0a0f18" stop-opacity="1"></stop><stop offset="80%" stop-color="#0a0f18" stop-opacity="1"></stop></linearGradient></defs><defs><linearGradient id="grad2_0" x1="0%" y1="100%" x2="66.7%" y2="0%"><stop offset="20%" stop-color="#0a0f18" stop-opacity="1"></stop><stop offset="80%" stop-color="#0a0f18" stop-opacity="1"></stop></linearGradient></defs><g transform="translate(900, 600)"><path d="M-486.7 0C-456.6 -56 -426.5 -112 -401.9 -166.5C-377.3 -221 -358.2 -274 -324.6 -324.6C-290.9 -375.1 -242.8 -423.1 -186.3 -449.7C-129.8 -476.3 -64.9 -481.5 0 -486.7L0 0Z" fill="#FFD60A"></path></g><g transform="translate(0, 0)"><path d="M486.7 0C487.1 70.8 487.5 141.7 449.7 186.3C411.9 230.9 335.9 249.3 287.1 287.1C238.3 324.9 216.7 382 173.4 418.5C130 455 65 470.9 0 486.7L0 0Z" fill="#FFD60A"></path></g></svg>