<svg fill="#ffffff" xmlns="http://www.w3.org/2000/svg" viewBox="64 131 247 113">
  <!-- contenido original dentro de nuevo viewBox -->
  <!-- Recortado del SVG original -->
  <defs><clipPath id="a"><path d="M64.238281 131.703125H123V191H64.238281Zm0 0"/></clipPath><clipPath id="b"><path d="M252 184h58.988281v59.199219H252Zm0 0"/></clipPath></defs><g clip-path="url(#a)"><path d="M66.660156 190.21875h-2.421875v-58.75h58.753907v2.421875H66.660156Zm0 0"/></g><g clip-path="url(#b)"><path d="M310.753906 243.519531h-58.75v-2.421875h56.328125v-56.328125h2.421875Zm0 0"/></g><path d="M133.666486 177.374987c1.863281 0 3.519531.386719 4.96875 1.15625 1.457031.773438 2.609375 1.929688 3.453125 3.46875.851563 1.542969 1.28125 3.421875 1.28125 5.640625v14.109375h-3.9375v-13.546875c0-2.382813-.59375-4.207031-1.78125-5.46875-1.179687-1.269531-2.765625-1.90625-4.765625-1.90625-2.074219 0-3.726562.664063-4.953125 1.984375-1.21875 1.324219-1.828125 3.242188-1.828125 5.75v13.1875h-3.921875v-13.546875c0-2.382813-.59375-4.207031-1.78125-5.46875-1.179687-1.269531-2.773437-1.90625-4.78125-1.90625-2.0625 0-3.710937.664063-4.9375 1.984375-1.21875 1.324219-1.828125 3.242188-1.828125 5.75v13.1875h-3.984375v-23.9375h3.984375v3.453125c.78125-1.257813 1.832031-2.222656 3.15625-2.890625 1.332031-.664062 2.796875-1 4.390625-1 2.007813 0 3.785156.453125 5.328125 1.359375 1.550781.898437 2.703125 2.21875 3.453125 3.96875.675781-1.6875 1.785156-2.992187 3.328125-3.921875 1.539062-.9375 3.257812-1.40625 5.15625-1.40625ZM148.383322 189.687487c0-2.445312.492188-4.59375 1.484375-6.4375.988281-1.851562 2.347656-3.285156 4.078125-4.296875 1.738281-1.019531 3.671875-1.53125 5.796875-1.53125 2.101563 0 3.925781.453125 5.46875 1.359375 1.539063.898438 2.691406 2.027344 3.453125 3.390625v-4.359375h4.015625v23.9375h-4.015625v-4.453125c-.792969 1.398437-1.96875 2.554687-3.53125 3.46875-1.554688.9179688-3.367188 1.375-5.4375 1.375-2.125 0-4.046875-.519531-5.765625-1.5625-1.71875-1.050781-3.074219-2.523437-4.0625-4.421875-.992187-1.894531-1.484375-4.050781-1.484375-6.46875Zm20.28125.046875c0-1.800781-.367188-3.367187-1.09375-4.703125-.730469-1.34375-1.714844-2.367188-2.953125-3.078125-1.242187-.71875-2.601563-1.078125-4.078125-1.078125-1.492188 0-2.851562.351562-4.078125 1.046875-1.21875.699219-2.195313 1.71875-2.921875 3.0625-.730469 1.335937-1.09375 2.902344-1.09375 4.703125 0 1.835938.363281 3.429688 1.09375 4.78125.726562 1.355469 1.703125 2.390625 2.921875 3.109375 1.226563.710937 2.585937 1.0625 4.078125 1.0625 1.476562 0 2.835938-.351563 4.078125-1.0625 1.238281-.71875 2.222656-1.753906 2.953125-3.109375.726562-1.351562 1.09375-2.929688 1.09375-4.734375ZM183.384796 181.703112c.695312-1.375 1.691406-2.4375 2.984375-3.1875 1.300781-.757813 2.882813-1.140625 4.75-1.140625v4.109375h-1.046875c-4.460938 0-6.6875 2.417969-6.6875 7.25v13.015625h-3.984375v-23.9375h3.984375ZM194.21147 189.687487c0-2.445312.492188-4.59375 1.484375-6.4375.988281-1.851562 2.347656-3.285156 4.078125-4.296875 1.738281-1.019531 3.6875-1.53125 5.84375-1.53125 1.863281 0 3.59375.433594 5.1875 1.296875 1.601562.855469 2.832031 1.980469 3.6875 3.375v-12.671875h4.015625v32.328125h-4.015625v-4.5c-.792969 1.429688-1.960938 2.601562-3.5 3.515625-1.542969.9179688-3.351562 1.375-5.421875 1.375-2.125 0-4.058594-.519531-5.796875-1.5625-1.730469-1.050781-3.089844-2.523437-4.078125-4.421875-.992187-1.894531-1.484375-4.050781-1.484375-6.46875Zm20.28125.046875c0-1.800781-.367188-3.367187-1.09375-4.703125-.730469-1.34375-1.714844-2.367188-2.953125-3.078125-1.242187-.71875-2.601563-1.078125-4.078125-1.078125-1.492188 0-2.851562.351562-4.078125 1.046875-1.21875.699219-2.195313 1.71875-2.921875 3.0625-.730469 1.335937-1.09375 2.902344-1.09375 4.703125 0 1.835938.363281 3.429688 1.09375 4.78125.726562 1.355469 1.703125 2.390625 2.921875 3.109375 1.226563.710937 2.585937 1.0625 4.078125 1.0625 1.476562 0 2.835938-.351563 4.078125-1.0625 1.238281-.71875 2.222656-1.753906 2.953125-3.109375.726562-1.351562 1.09375-2.929688 1.09375-4.734375ZM247.072319 188.859362c0 .761719-.042969 1.5625-.125 2.40625h-19.140625c.144531 2.355469.953125 4.199219 2.421875 5.53125 1.476563 1.324219 3.265625 1.984375 5.359375 1.984375 1.71875 0 3.148438-.398438 4.296875-1.203125 1.15625-.800781 1.96875-1.875 2.4375-3.21875h4.28125c-.648437 2.304687-1.933594 4.179687-3.859375 5.625-1.917969 1.4375-4.304688 2.15625-7.15625 2.15625-2.273438 0-4.304688-.507813-6.09375-1.53125-1.792969-1.019531-3.199219-2.46875-4.21875-4.34375-1.023438-1.875-1.53125-4.050781-1.53125-6.53125 0-2.476563.492188-4.644531 1.484375-6.5.988281-1.863281 2.378906-3.296875 4.171875-4.296875 1.789062-1.007812 3.851562-1.515625 6.1875-1.515625 2.269531 0 4.28125.496094 6.03125 1.484375 1.75.992188 3.09375 2.351562 4.03125 4.078125.945312 1.730469 1.421875 3.6875 1.421875 5.875Zm-4.109375-.828125c0-1.507812-.335938-2.8125-1-3.90625-.667969-1.09375-1.578125-1.921875-2.734375-2.484375-1.148437-.570313-2.417969-.859375-3.8125-.859375-2.011719 0-3.726563.640625-5.140625 1.921875-1.40625 1.28125-2.214844 3.058594-2.421875 5.328125ZM261.236674 198.078112l7.421875-20.265625h4.234375l-9.390625 23.9375h-4.625l-9.390625-23.9375h4.28125Zm0 0"/>
</svg>
